HIERARCHY
ROOT joint_0
{
	OFFSET 0.000000 0.000000 0.000000
	CHANNELS 6 Xposition Yposition Zposition Zrotation Yrotation Xrotation 
	JOINT joint_1
	{
		OFFSET 1.363060 -1.794630 0.839290
		CHANNELS 3 Zrotation Yrotation Xrotation
		JOINT joint_2
		{
			OFFSET 2.448110 -6.726130 0.000000
			CHANNELS 3 Zrotation Yrotation Xrotation
			JOINT joint_3
			{
				OFFSET 2.562200 -7.039590 0.000000
				CHANNELS 3 Zrotation Yrotation Xrotation
				JOINT joint_4
				{
					OFFSET 0.157640 -0.433110 2.322550
					CHANNELS 3 Zrotation Yrotation Xrotation
					End Site
					{
						OFFSET 0.000000 0.000000 0.000000
					}
				}
			}
		}
	}
	JOINT joint_5
	{
		OFFSET -1.305520 -1.794630 0.839290
		CHANNELS 3 Zrotation Yrotation Xrotation
		JOINT joint_6
		{
			OFFSET -2.542530 -6.985550 0.000000
			CHANNELS 3 Zrotation Yrotation Xrotation
			JOINT joint_7
			{
				OFFSET -2.568260 -7.056230 0.000000
				CHANNELS 3 Zrotation Yrotation Xrotation
				JOINT joint_8
				{
					OFFSET -0.164730 -0.452590 2.363150
					CHANNELS 3 Zrotation Yrotation Xrotation
					End Site
					{
						OFFSET 0.000000 0.000000 0.000000
					}
				}
			}
		}
	}
	JOINT joint_9
	{
		OFFSET 0.028270 2.035590 -0.193380
		CHANNELS 3 Zrotation Yrotation Xrotation
		JOINT joint_10
		{
			OFFSET 0.056720 2.048850 -0.042750
			CHANNELS 3 Zrotation Yrotation Xrotation
			JOINT joint_11
			{
				OFFSET -0.054170 1.746240 0.172020
				CHANNELS 3 Zrotation Yrotation Xrotation
				JOINT joint_12
				{
					OFFSET 0.104070 1.761360 -0.123970
					CHANNELS 3 Zrotation Yrotation Xrotation
					End Site
					{
						OFFSET 0.000000 0.000000 0.000000
					}
				}
			}
			JOINT joint_13
			{
				OFFSET 3.362410 1.200890 -0.311210
				CHANNELS 3 Zrotation Yrotation Xrotation
				JOINT joint_14
				{
					OFFSET 4.983000 -0.000000 -0.000000
					CHANNELS 3 Zrotation Yrotation Xrotation
					JOINT joint_15
					{
						OFFSET 3.483560 -0.000000 -0.000000
						CHANNELS 3 Zrotation Yrotation Xrotation
						JOINT joint_16
						{
							OFFSET 0.715260 -0.000000 -0.000000
							CHANNELS 3 Zrotation Yrotation Xrotation
							End Site
							{
								OFFSET 0.000000 0.000000 0.000000
							}
						}
					}
				}
			}
			JOINT joint_17
			{
				OFFSET -3.136600 1.374050 -0.404650
				CHANNELS 3 Zrotation Yrotation Xrotation
				JOINT joint_18
				{
					OFFSET -5.241900 -0.000000 -0.000000
					CHANNELS 3 Zrotation Yrotation Xrotation
					JOINT joint_19
					{
						OFFSET -3.444170 -0.000000 -0.000000
						CHANNELS 3 Zrotation Yrotation Xrotation
						JOINT joint_20
						{
							OFFSET -0.622530 -0.000000 -0.000000
							CHANNELS 3 Zrotation Yrotation Xrotation
							End Site
							{
								OFFSET 0.000000 0.000000 0.000000
							}
						}
					}
				}
			}
		}
	}
}
MOTION
Frames: 15
Frame Time: 0.031667
0.097733 12.882330 0.339344 5.371024 6.314359 16.174130 -12.170922 -15.388915 -69.740185 11.685458 23.579110 67.654750 1.859576 -7.861941 -7.348587 0.159294 -2.570667 -7.084390 1.818592 -14.346569 -36.691465 -19.495071 -18.849016 82.925701 -4.450432 8.753906 -25.289396 -4.209802 12.367400 -36.668808 1.151757 2.675807 -3.277425 -0.108780 1.173864 -7.701877 9.087803 -9.236755 3.818123 -0.952647 -4.736528 6.163426 -55.407196 -59.088931 41.163527 126.249986 -44.662071 -95.029643 4.248595 0.044078 -10.791215 -6.950696 -0.000783 0.033208 8.251677 44.373648 -40.508170 -50.826746 49.638184 -27.223470 0.111122 -3.149443 -20.463114 7.011459 -0.001791 0.006691 
0.079993 12.941209 0.343915 5.025169 5.824940 16.393716 -11.909930 -16.470430 -68.866849 11.021417 24.208078 66.363645 1.995648 -6.937061 -6.211067 0.131831 -2.326363 -6.406778 0.664434 -14.135961 -34.870450 -19.087830 -18.629597 81.776901 -3.688171 9.556984 -24.936830 -4.358940 12.582698 -37.266692 1.229503 3.674464 -3.573742 -0.219449 0.915691 -7.383526 7.523659 -7.624047 3.285466 -1.253179 -4.652859 6.323059 -56.242846 -59.174850 42.524937 125.735728 -44.120713 -94.439298 4.111915 -0.137329 -10.566227 -6.971204 0.000159 0.030912 14.167454 44.231073 -35.335288 -55.801300 50.146723 -31.360940 0.085453 -4.164847 -25.474211 7.028059 0.000147 0.008524 
0.080211 13.011298 0.348268 4.581349 4.888886 16.634007 -10.747471 -17.126987 -69.459987 11.315834 24.894245 64.650537 2.048779 -6.280900 -7.166900 0.084495 -1.839530 -5.067804 0.766166 -14.143148 -32.973118 -17.712017 -18.747901 78.790056 -4.623159 9.500316 -24.342277 -4.325832 12.554130 -37.147910 1.690931 4.256648 -3.931827 0.032054 0.888906 -9.419528 8.819636 -7.862731 4.068114 -1.386411 -4.285984 6.363922 -56.350286 -59.986812 42.399391 123.483410 -43.194683 -91.899877 4.205398 0.072124 -10.632852 -6.969232 0.003805 0.031127 19.517705 43.688715 -29.394687 -63.165166 51.736412 -38.134622 -0.345780 -3.065707 -29.571651 7.024639 0.002180 0.011415 
0.094685 13.091400 0.354036 4.037172 3.523990 16.941363 -10.574328 -18.242352 -68.784993 11.401070 23.264200 63.346148 2.217297 -4.745500 -8.049914 0.132021 -2.236254 -6.225054 0.749663 -14.134008 -32.575817 -16.517573 -19.824189 77.403200 -4.059581 9.659677 -23.228338 -4.336924 12.543048 -37.267904 1.549242 3.191763 -3.099147 0.378875 0.318159 -6.763473 8.754586 -6.919538 3.997510 -1.544676 -3.696688 6.226486 -59.830042 -59.366121 45.372062 122.640440 -43.750413 -91.628469 3.986740 -0.576547 -11.153893 -6.975010 0.006740 0.032537 25.886116 43.456854 -22.849496 -73.054685 53.293046 -45.869029 -0.287572 -3.200472 -34.275999 7.022266 0.001392 0.012546 
0.119173 13.177814 0.361219 3.442140 1.843363 17.388457 -9.617081 -19.410516 -68.907030 10.733204 24.085155 61.875875 1.443520 -3.315215 -8.509241 0.150226 -2.365738 -6.620864 0.653373 -14.084426 -32.259299 -15.746252 -20.368663 76.707267 -3.985939 9.814282 -22.632620 -4.477886 12.744355 -37.899247 2.117543 2.908269 -3.702873 1.550774 -0.265816 -7.692106 8.974502 -6.194006 3.974778 -1.639023 -3.059242 5.947951 -55.492915 -60.852754 41.411093 122.127753 -43.518206 -92.580127 3.724956 -0.914912 -11.296208 -7.019673 0.011068 0.038582 30.761806 41.289469 -17.290891 -84.945883 54.115519 -56.574250 -0.223211 -3.528130 -39.066727 7.064300 0.000133 0.014892 
0.152041 13.264990 0.367314 2.857033 -0.047148 18.025311 -7.524383 -18.382457 -70.764207 11.074507 23.571108 61.684806 1.487247 -1.723065 -8.619891 0.167855 -2.517664 -7.016327 0.712265 -14.021894 -33.891588 -14.510465 -21.321025 76.029535 -4.478548 10.525232 -23.440042 -4.578753 12.905496 -38.401600 1.930849 1.170323 -3.346476 2.594501 -1.313503 -6.840947 9.223702 -5.186690 4.260490 -1.950013 -2.725781 6.052933 -55.476533 -60.398464 41.697483 122.965223 -42.848323 -92.902901 3.923678 -0.660539 -13.063663 -7.066079 0.011928 0.043686 36.033117 38.838864 -11.638694 -99.029908 51.733229 -68.292459 -0.368228 -3.441535 -39.527721 7.109922 0.000187 0.015523 
0.192636 13.352601 0.375259 2.289350 -2.052988 18.742077 -5.457835 -18.516156 -71.421252 9.706373 23.938750 61.464187 0.101619 -0.177534 -9.763571 0.179773 -2.605833 -7.253820 1.654727 -13.151633 -35.190160 -15.849331 -19.484128 73.958556 -4.287405 10.804442 -24.280492 -4.591220 12.956245 -38.505797 3.447556 0.596140 -4.847936 2.887771 -2.176211 -6.204183 9.023821 -4.263925 4.313602 -1.843021 -2.355636 6.088395 -57.314823 -61.283912 43.334679 120.137878 -42.833910 -88.816900 2.640106 -0.677282 -12.450480 -7.088959 0.011503 0.044206 39.526932 36.353052 -9.543788 -109.399523 49.444082 -80.550937 -1.273706 -2.923180 -39.045578 7.129865 0.001480 0.016232 
0.241067 13.440756 0.388101 1.733108 -4.020184 19.390000 -4.336645 -17.029301 -71.353519 11.639599 23.118646 61.933594 0.413973 -0.329173 -9.481323 0.141054 -2.336619 -6.477678 2.446271 -12.921224 -37.667454 -12.634622 -22.869497 71.821798 -4.273702 10.523858 -22.961080 -4.594646 12.964575 -38.547768 2.326682 -0.103233 -3.528167 4.121181 -2.431403 -6.714164 6.756226 -2.151024 3.385441 -1.771724 -1.744063 5.869713 -54.008766 -61.850061 39.999740 117.606932 -40.716434 -89.036432 2.229344 -0.548177 -12.602853 -7.090678 0.010538 0.042185 43.193679 35.126191 -4.866710 -118.573013 44.937041 -87.395209 -1.370436 -1.580397 -40.408692 7.125598 0.001680 0.015197 
0.294722 13.522708 0.401706 1.177273 -5.773627 19.938305 -4.409080 -16.539244 -70.565539 11.532159 22.312455 62.557313 0.472628 0.162752 -10.080195 0.145927 -2.351767 -6.530946 2.136362 -12.175217 -37.304406 -14.848095 -19.221816 70.336502 -4.733757 11.429251 -23.215263 -4.501779 12.821356 -38.189439 2.990611 -0.904898 -3.740421 3.345200 -1.923373 -4.983879 7.373807 -1.360891 3.642114 -1.931910 -1.077946 5.555460 -49.862759 -63.554427 36.856280 118.744535 -43.681970 -88.829749 2.083685 -0.324651 -13.217356 -7.097319 0.009066 0.039003 44.962560 34.512939 -2.658824 -125.001072 43.602857 -93.474416 -1.538465 -0.406845 -40.670832 7.124511 0.001259 0.014139 
0.350880 13.590185 0.409106 0.644210 -7.180928 20.457526 -3.389661 -15.849187 -70.191570 11.223796 23.348777 61.589031 -0.045942 2.874281 -10.278595 0.123511 -2.218522 -6.127751 3.185332 -11.936947 -37.611662 -13.656843 -20.323100 68.617623 -4.562840 10.701625 -21.928934 -4.459170 12.702148 -38.040413 2.998506 -1.503263 -3.720552 4.435161 -1.944081 -6.405116 7.791681 -0.254104 3.506434 -2.536811 -0.338206 5.540302 -43.868951 -67.916187 31.225646 115.765247 -41.173586 -88.391187 1.884528 -0.754733 -13.514688 -7.096720 0.005830 0.034774 47.410249 34.299319 -0.936288 -127.475534 38.196704 -95.841287 -0.274584 0.121112 -41.787936 7.122968 -0.001185 0.010625 
0.406930 13.641990 0.411065 0.195471 -8.205382 20.942685 -3.324134 -14.591609 -71.590645 10.530709 22.581570 60.873357 -0.781308 4.764544 -9.794000 0.088452 -1.895381 -5.231318 2.897966 -11.751346 -36.972753 -12.346435 -20.877318 67.294288 -4.825188 10.846339 -22.559978 -4.404700 12.573843 -37.844563 3.522683 -2.448743 -3.752672 5.053536 -1.893074 -6.770095 9.599396 0.991173 3.769788 -2.831034 0.163474 5.700681 -44.100154 -69.392602 30.406681 117.516661 -43.131108 -88.076763 2.640500 -0.840226 -14.909153 -7.094336 0.002641 0.030801 48.142642 34.615677 -0.919444 -131.497994 37.936191 -98.346153 -0.369645 0.147749 -41.445995 7.113794 -0.003007 0.008038 
0.459170 13.678994 0.409324 -0.095907 -8.886073 21.346678 -3.136485 -15.585863 -70.888912 10.562137 22.973219 60.585497 -1.154342 5.135228 -10.415712 0.079354 1.479953 3.889237 2.800593 -11.820839 -37.156539 -12.810168 -20.776016 66.865780 -4.382207 10.710256 -21.548323 -4.268717 12.396349 -37.225493 4.128972 -3.710097 -4.428975 6.117074 -1.525312 -6.999352 9.817997 1.224866 4.002728 -2.471360 0.141873 5.753432 -43.881914 -69.748037 29.876462 116.807029 -43.058558 -87.169387 2.615623 -0.937315 -15.113909 -7.090579 0.001802 0.029509 48.405831 34.390260 -1.278193 -132.658063 37.973032 -98.046380 -0.598869 0.270138 -41.912153 7.108247 -0.003170 0.007723 
0.506186 13.698910 0.402903 -0.178532 -9.325158 21.637617 -2.774684 -15.630859 -70.229349 10.353562 22.626089 60.427272 -0.976418 5.257547 -10.950484 0.068424 -1.652651 -4.561268 2.863011 -12.249081 -38.023231 -12.559003 -20.525187 66.730250 -4.832793 11.441800 -21.944368 -4.155718 12.268533 -36.693345 3.518657 -3.055299 -3.556020 5.057903 -1.290501 -4.980519 8.862547 1.056308 3.631893 -1.970213 0.180206 5.736505 -43.133531 -69.333582 29.037709 115.401933 -42.841080 -87.639655 2.538943 -0.789740 -14.658406 -7.086943 0.002144 0.028578 47.947790 34.746017 -2.159689 -130.860159 37.528489 -97.666980 -0.957086 -0.822681 -42.527341 7.105635 -0.002270 0.007983 
0.548305 13.701631 0.390060 -0.019256 -9.629650 21.788752 -2.032528 -16.565017 -70.940386 10.720921 22.978560 59.804485 -1.249777 5.919301 -11.530166 0.085742 -1.860245 -5.128219 1.953532 -11.985055 -37.748725 -12.570250 -20.683112 66.727242 -5.062482 11.727497 -22.201193 -4.128790 12.255290 -36.550912 4.093819 -3.348569 -4.052930 6.966434 -1.308992 -6.630532 8.723370 0.892563 3.601013 -1.555765 0.183537 5.703900 -43.114766 -69.576521 29.366078 115.635470 -42.691777 -86.221493 2.188814 -0.228096 -14.192081 -7.087976 0.002648 0.029277 46.678122 34.958637 -3.622944 -130.085656 39.798493 -95.665054 -0.770709 -0.597526 -42.367409 7.109017 -0.001390 0.009174 
0.584437 13.690095 0.371014 0.398985 -9.805125 21.768126 -1.588324 -16.032647 -70.454201 10.709732 22.465896 59.428675 -0.803806 6.342209 -12.181343 0.119284 -2.184811 -6.031302 1.040220 -12.189297 -36.799806 -11.450136 -20.854818 66.166356 -5.422203 11.987717 -21.978745 -4.147414 12.307720 -36.625067 3.368195 -2.187709 -4.485617 5.414940 -0.845072 -5.324532 8.406303 0.833962 3.581088 -1.256105 0.118269 5.634217 -42.508512 -70.295579 28.295032 115.980054 -43.668282 -86.784752 2.376324 -0.015514 -13.505914 -7.083188 0.004313 0.031060 45.237162 35.322474 -5.646905 -126.408845 43.028486 -91.719259 0.568108 -0.766172 -41.775272 7.112699 -0.000417 0.010150 
